<?xml version="1.0" encoding="UTF-8" standalone="no"?>
<!DOCTYPE svg PUBLIC "-//W3C//DTD SVG 1.1//EN" "http://www.w3.org/Graphics/SVG/1.1/DTD/svg11.dtd">
<svg width="100%" height="100%" viewBox="0 0 997 997" version="1.1" xmlns="http://www.w3.org/2000/svg" xmlns:xlink="http://www.w3.org/1999/xlink" xml:space="preserve" xmlns:serif="http://www.serif.com/" style="fill-rule:evenodd;clip-rule:evenodd;stroke-linejoin:round;stroke-miterlimit:2;">
    <g id="Botom" transform="matrix(1.022916,0,0,1.022912,75.807017,18.174666)">
        <path d="M417.539,629.414C417.539,629.414 260.763,810.011 221.682,855.03C216.129,861.428 208.073,865.102 199.602,865.102L-1.21,865.102C-12.664,865.102 -23.063,858.414 -27.815,847.993C-32.567,837.571 -30.796,825.334 -23.285,816.687C68.418,711.113 278.228,469.567 278.228,469.567L417.539,629.414ZM278.228,469.567C278.228,469.567 72.247,233.221 -18.883,128.658C-26.431,119.997 -28.208,107.719 -23.425,97.273C-18.642,86.827 -8.185,80.151 3.304,80.207C65.74,80.513 155.584,80.953 189.047,81.117C197.449,81.158 205.427,84.812 210.947,91.146C277.361,167.35 705.971,659.143 843.243,816.651C850.774,825.292 852.562,837.537 847.815,847.971C843.068,858.404 832.663,865.102 821.2,865.102L636.25,865.102C627.798,865.102 619.759,861.445 614.206,855.073C575.034,810.126 417.539,629.414 417.539,629.414L278.838,468.865L278.228,469.567ZM830.257,79.89C841.711,79.89 852.111,86.578 856.862,97.001C861.614,107.424 859.842,119.661 852.329,128.307C769.62,223.505 593.797,425.878 593.797,425.878L450.621,270.659C450.621,270.659 573.39,129.316 607.578,89.956C613.132,83.562 621.185,79.89 629.653,79.89C665.179,79.89 763.927,79.89 830.257,79.89Z" style="fill:white;"/>
    </g>
</svg>
